<svg xmlns="http://www.w3.org/2000/svg" viewBox="0 0 49.88 47.31">
  <defs>
    <style>
      .cls-1 {
        fill: #d6d9db;
      }

      .cls-2, .cls-4, .cls-8, .cls-9 {
        fill: none;
        stroke: #fff;
      }

      .cls-2, .cls-4 {
        stroke-linecap: round;
        stroke-linejoin: round;
      }

      .cls-2 {
        stroke-width: 1.22px;
      }

      .cls-3 {
        fill: #40ccf7;
      }

      .cls-4 {
        stroke-width: 1.27px;
      }

      .cls-5 {
        fill: #1f2940;
      }

      .cls-6 {
        fill: #f7f7f7;
      }

      .cls-7 {
        fill: #fff;
      }

      .cls-8, .cls-9 {
        stroke-miterlimit: 10;
      }

      .cls-8 {
        stroke-width: 0.31px;
      }

      .cls-9 {
        stroke-width: 0.22px;
      }
    </style>
  </defs>
  <title>3</title>
  <g id="Слой_2" data-name="Слой 2">
    <g id="Слой_1-2" data-name="Слой 1">
      <g>
        <polygon class="cls-1" points="6.82 45.91 5.78 40.29 0.61 37.85 13.31 28.07 19.53 36.12 6.82 45.91"/>
        <polygon class="cls-2" points="6.82 45.91 5.78 40.29 0.61 37.85 13.31 28.07 19.53 36.12 6.82 45.91"/>
        <polygon class="cls-1" points="49.27 39.69 43.79 41.3 41.9 46.7 30.85 35.08 38.22 28.06 49.27 39.69"/>
        <polygon class="cls-2" points="49.27 39.69 43.79 41.3 41.9 46.7 30.85 35.08 38.22 28.06 49.27 39.69"/>
        <path class="cls-3" d="M47.13,22.82A22.19,22.19,0,1,1,24.94.63,22.19,22.19,0,0,1,47.13,22.82"/>
        <path class="cls-4" d="M47.13,22.82A22.19,22.19,0,1,1,24.94.63,22.19,22.19,0,0,1,47.13,22.82Z"/>
        <rect class="cls-1" x="1.36" y="16.68" width="46.62" height="11.48"/>
        <rect class="cls-2" x="1.36" y="16.68" width="46.62" height="11.48"/>
        <polygon class="cls-5" points="13.96 19.73 15.01 19.73 15.01 24.77 17.61 24.77 17.61 25.73 13.96 25.73 13.96 19.73"/>
        <path class="cls-5" d="M24.27,22.37v2.37a3.09,3.09,0,0,1-2.49,1.1,3.12,3.12,0,1,1,0-6.23,3.13,3.13,0,0,1,2.32,1l-.57.69a2.36,2.36,0,0,0-1.72-.71,2,2,0,0,0-2.11,2.18,2.06,2.06,0,0,0,2.15,2.19,2,2,0,0,0,1.47-.58V23.23h-1.6v-.86Z"/>
        <path class="cls-5" d="M29.27,24a.89.89,0,0,0-1-.91h-1.4v1.81h1.36a.9.9,0,0,0,1-.9m-2.36-1.75h1.2c.6,0,.92-.31.92-.84s-.38-.8-.93-.8H26.91Zm3.41,1.85a1.69,1.69,0,0,1-1.88,1.66H25.88v-6h2.39a1.63,1.63,0,0,1,1.81,1.57,1.5,1.5,0,0,1-.71,1.29,1.57,1.57,0,0,1,.95,1.48"/>
        <polygon class="cls-5" points="35.74 20.69 34.04 20.69 34.04 25.73 33 25.73 33 20.69 31.3 20.69 31.3 19.73 35.74 19.73 35.74 20.69"/>
        <path class="cls-6" d="M17.84,32.33a1.2,1.2,0,1,0-1.21,1.27,1.19,1.19,0,0,0,1.21-1.27m-3,0a1.82,1.82,0,0,1,3.64,0,1.82,1.82,0,0,1-3.64,0"/>
        <path class="cls-6" d="M23.89,30.59h0l-1.23,3.51h-.18l-.85-1.86a2,2,0,0,1-.15-.39,2.89,2.89,0,0,1-.15.39l-.85,1.86H20.3L19.08,30.6h.63l.62,1.82c.05.16.1.32.15.52.07-.2.13-.36.2-.52l.72-1.61h.15l.69,1.54a5.89,5.89,0,0,1,.24.58c.05-.2.12-.38.18-.55l.59-1.78Z"/>
        <path class="cls-6" d="M27.7,30.59v3.52h-.24L25.57,32l-.29-.32c0,.13,0,.26,0,.39v2h-.6V30.57h.23l1.83,2,.35.37c0-.17,0-.32,0-.46v-1.9Z"/>
        <polygon class="cls-6" points="31.11 33.55 31.11 34.09 28.86 34.09 28.86 30.59 31.06 30.59 31.06 31.12 29.47 31.12 29.47 32.05 30.86 32.05 30.86 32.57 29.47 32.57 29.47 33.55 31.11 33.55"/>
        <path class="cls-6" d="M33.28,33.56a1.14,1.14,0,0,0,1.19-1.22,1.15,1.15,0,0,0-1.19-1.23h-.62v2.45Zm-1.23-3H33.3a1.75,1.75,0,1,1,0,3.49H32.05Z"/>
        <path class="cls-7" d="M25.3,12.17s-4.85-4-2.89-6c1.13-1.13,2.89.53,2.89.53s1.76-1.66,2.89-.53c2,2-2.89,6-2.89,6"/>
        <path class="cls-8" d="M25.3,12.17s-4.85-4-2.89-6c1.13-1.13,2.89.53,2.89.53s1.76-1.66,2.89-.53C30.15,8.15,25.3,12.17,25.3,12.17Z"/>
        <path class="cls-7" d="M16.49,12.17S13,9.31,14.43,7.92c.81-.81,2.06.38,2.06.38s1.26-1.19,2.06-.38c1.4,1.39-2.06,4.25-2.06,4.25"/>
        <path class="cls-9" d="M16.49,12.17S13,9.31,14.43,7.92c.81-.81,2.06.38,2.06.38s1.26-1.19,2.06-.38C20,9.31,16.49,12.17,16.49,12.17Z"/>
        <path class="cls-7" d="M33.68,12.17s-3.46-2.86-2.06-4.25c.8-.81,2.06.38,2.06.38s1.26-1.19,2.06-.38c1.4,1.39-2.06,4.25-2.06,4.25"/>
        <path class="cls-9" d="M33.68,12.17s-3.46-2.86-2.06-4.25c.8-.81,2.06.38,2.06.38s1.26-1.19,2.06-.38C37.14,9.31,33.68,12.17,33.68,12.17Z"/>
      </g>
    </g>
  </g>
</svg>
