<svg xmlns="http://www.w3.org/2000/svg" viewBox="0 0 49.69 47.22">
  <defs>
    <style>
      .cls-1 {
        fill: #d6d9db;
      }

      .cls-2, .cls-4, .cls-5, .cls-8 {
        fill: none;
      }

      .cls-2, .cls-4, .cls-5 {
        stroke: #fff;
        stroke-linecap: round;
        stroke-linejoin: round;
      }

      .cls-2 {
        stroke-width: 1px;
      }

      .cls-3 {
        fill: #40ccf7;
      }

      .cls-4 {
        stroke-width: 1.27px;
      }

      .cls-5 {
        stroke-width: 1.22px;
      }

      .cls-6 {
        fill: #1f2940;
      }

      .cls-7 {
        fill: #f7f7f7;
      }

      .cls-8 {
        stroke: #1f2940;
        stroke-miterlimit: 10;
      }
    </style>
  </defs>
  <title>4</title>
  <g id="Слой_2" data-name="Слой 2">
    <g id="Слой_1-2" data-name="Слой 1">
      <g>
        <polygon class="cls-1" points="6.72 45.92 5.68 40.3 0.5 37.85 13.22 28.05 19.45 36.12 6.72 45.92"/>
        <polygon class="cls-2" points="6.72 45.92 5.68 40.3 0.5 37.85 13.22 28.05 19.45 36.12 6.72 45.92"/>
        <polygon class="cls-1" points="49.19 39.69 43.7 41.31 41.8 46.72 30.73 35.07 38.12 28.05 49.19 39.69"/>
        <polygon class="cls-2" points="49.19 39.69 43.7 41.31 41.8 46.72 30.73 35.07 38.12 28.05 49.19 39.69"/>
        <path class="cls-3" d="M47,22.82A22.19,22.19,0,1,1,24.85.63,22.18,22.18,0,0,1,47,22.82"/>
        <path class="cls-4" d="M47,22.82A22.19,22.19,0,1,1,24.85.63,22.18,22.18,0,0,1,47,22.82Z"/>
        <rect class="cls-1" x="1.27" y="16.68" width="46.62" height="11.48"/>
        <rect class="cls-5" x="1.27" y="16.68" width="46.62" height="11.48"/>
        <path class="cls-6" d="M11.08,25.73h-1l-.47-3.25c0-.21-.06-.4-.07-.61-.11.2-.23.38-.36.57L7.78,24.52H7.57L6.21,22.44c-.13-.19-.25-.38-.37-.59a6.27,6.27,0,0,1-.07.64l-.46,3.24h-1l.88-6.05h.31l1.81,2.77c.13.21.27.42.39.63.12-.21.26-.42.39-.63l1.82-2.77h.3Z"/>
        <rect class="cls-6" x="12.43" y="19.73" width="1.04" height="6"/>
        <path class="cls-6" d="M20.34,19.73v6h-.41l-3.24-3.54-.5-.55c0,.22,0,.44,0,.65v3.4h-1v-6h.4l3.14,3.45c.2.21.4.42.6.65,0-.29,0-.56,0-.81V19.73Z"/>
        <path class="cls-6" d="M28.78,22.59a1,1,0,0,0,1.09-1,1,1,0,0,0-1.07-1H27.57v2Zm2.29,3.11v0H29.89l-1.41-2.28h-.91v2.28h-1v-6h2.35a1.89,1.89,0,0,1,2,1.87,1.79,1.79,0,0,1-1.38,1.74Z"/>
        <rect class="cls-6" x="32.3" y="19.73" width="1.04" height="6"/>
        <polygon class="cls-6" points="38.93 20.69 37.24 20.69 37.24 25.73 36.2 25.73 36.2 20.69 34.49 20.69 34.49 19.73 38.93 19.73 38.93 20.69"/>
        <path class="cls-6" d="M44.91,19.73v0l-2.18,3.38v2.6h-1v-2.6l-2.19-3.38v0h1.19l1.07,1.69a7.54,7.54,0,0,1,.46.83,9.32,9.32,0,0,1,.45-.83l1.07-1.69Z"/>
        <path class="cls-7" d="M18,32.33a1.2,1.2,0,1,0-1.2,1.27A1.19,1.19,0,0,0,18,32.33m-3,0a1.83,1.83,0,1,1,1.83,1.82,1.78,1.78,0,0,1-1.83-1.82"/>
        <path class="cls-7" d="M23.89,30.59h0l-1.22,3.51h-.18l-.85-1.86a2,2,0,0,1-.15-.39,2.89,2.89,0,0,1-.15.39l-.85,1.86h-.18L19.09,30.6h.63l.62,1.82c.05.16.1.32.15.52.07-.2.13-.36.2-.52l.72-1.61h.15l.69,1.54a5.89,5.89,0,0,1,.24.58c.05-.2.12-.38.18-.55l.59-1.78Z"/>
        <path class="cls-7" d="M27.6,30.59v3.52h-.23L25.48,32a3.09,3.09,0,0,1-.29-.32c0,.13,0,.26,0,.39v2H24.6V30.57h.24l1.83,2L27,33c0-.17,0-.32,0-.46v-1.9Z"/>
        <polygon class="cls-7" points="30.91 33.55 30.91 34.09 28.66 34.09 28.66 30.59 30.86 30.59 30.86 31.12 29.27 31.12 29.27 32.05 30.66 32.05 30.66 32.57 29.27 32.57 29.27 33.55 30.91 33.55"/>
        <path class="cls-7" d="M33,33.56a1.14,1.14,0,0,0,1.19-1.22A1.15,1.15,0,0,0,33,31.11h-.62v2.45Zm-1.23-3H33a1.75,1.75,0,1,1,0,3.49H31.75Z"/>
        <circle class="cls-8" cx="23.47" cy="22.7" r="1.34" transform="translate(-2.12 2.42) rotate(-5.66)"/>
      </g>
    </g>
  </g>
</svg>
