<svg width="1920" height="580" viewBox="0 0 1920 580" fill="none" xmlns="http://www.w3.org/2000/svg">
<path d="M-35.5 11.5013C81.5 6.50129 352.4 49.2015 500 260.001C723.36 579 1218 529.001 1425.5 260.001C1633 -8.99852 1244 677.002 1943.5 567.502" stroke="#D3E2EA" stroke-linecap="round" stroke-dasharray="5 5"/>
<path d="M1974 98.0007C1857.5 23.0007 1530.5 -65.8993 1154.5 178.501C684.5 484.001 540.5 522 -24 346.5" stroke="#D3E2EA" stroke-linecap="round" stroke-dasharray="5 5"/>
<path d="M-48.5 324.501C129.5 214.668 673 38.0948 1096 247.002C1463.5 428.499 1767.5 436.001 1999 308.501" stroke="#D3E2EA" stroke-linecap="round" stroke-dasharray="5 5"/>
<circle cx="331" cy="109" r="21" fill="#E9AEA9"/>
<circle cx="1337" cy="348" r="21" fill="#CCE9F9"/>
<circle cx="1589" cy="21" r="21" fill="#CCE9F9"/>
<circle cx="1519.5" cy="429.5" r="10.5" fill="#E9AEA9"/>
<circle cx="1488.5" cy="199.5" r="10.5" fill="#F8E0AB"/>
<circle cx="540.5" cy="155.5" r="10.5" fill="#CCE9F9"/>
<circle cx="420.5" cy="446.5" r="10.5" fill="#F8E0AB"/>
</svg>
