<svg width="342" height="194" viewBox="0 0 342 194" fill="none" xmlns="http://www.w3.org/2000/svg">
<path d="M313.2 6.8C324.6 6.8 334 16.2 334 27.6V166C334 177.4 324.6 186.8 313.2 186.8H28.8C17.4 186.8 8 177.4 8 166V27.6C8 16.1 17.4 6.8 28.8 6.8H313.2ZM313.2 4.8H28.8C16.2 4.8 6 15 6 27.6V166C6 178.6 16.2 188.8 28.8 188.8H313.2C325.8 188.8 336 178.6 336 166V27.6C336 15 325.8 4.8 313.2 4.8" fill="white"/>
<path d="M21.1 73C20.8 71.8 21.4 70.9 22.6 70.9H28.3C29 70.9 29.7 71.5 29.8 72.1L40.2 111.5H40.5L54.5 71C54.7 70.5 55.3 70.1 56 70.1H57.5C58.2 70.1 58.8 70.5 59 71L73.1 111.5H73.4L83.6 72.1C83.8 71.5 84.5 70.9 85.1 70.9H91C92.2 70.9 92.9 71.8 92.5 73L76.3 130.6C76.1 131.3 75.4 131.8 74.8 131.8H73.4C72.8 131.8 72.1 131.4 71.9 130.9L56.9 88.2H56.5L41.7 130.8C41.5 131.3 40.8 131.7 40.2 131.7H38.8C38.1 131.7 37.4 131.2 37.3 130.5L21.1 73ZM103.3 72.5C103.3 71.6 104 70.9 104.9 70.9H124.1C134.5 70.9 141.9 77.8 141.9 86.8C141.9 93.4 137 98.1 133 100.4C137.5 102.3 143.7 106.5 143.7 114.4C143.7 124 135.8 130.9 125 130.9H104.9C104 130.9 103.3 130.1 103.3 129.3V72.5V72.5ZM125 123C130.2 123 134.3 119 134.3 113.7C134.3 108.5 129.3 104.7 123.8 104.7H112V123H125ZM123.6 97C129.1 97 132.4 93 132.4 87.8C132.4 82.6 129.1 79 123.6 79H112V97H123.6ZM156.5 72.5C156.5 71.6 157.2 70.9 158.1 70.9H192.4C193.3 70.9 194 71.7 194 72.5V77.3C194 78.2 193.3 78.9 192.4 78.9H165.3V96.4H188.2C189.1 96.4 189.8 97.2 189.8 98V102.8C189.8 103.7 189 104.4 188.2 104.4H165.3V122.8H192.4C193.3 122.8 194 123.6 194 124.4V129.1C194 130 193.3 130.7 192.4 130.7H158.1C157.2 130.7 156.5 129.9 156.5 129.1V72.5V72.5ZM206.8 71.6C206.8 70.7 207.6 70.1 208.4 70.1H210.5L247.7 113.1H247.8V72.5C247.8 71.6 248.5 70.9 249.4 70.9H254.9C255.8 70.9 256.5 71.7 256.5 72.5V130.2C256.5 131.1 255.7 131.7 254.9 131.7H252.7L215.5 87.5H215.4V129.3C215.4 130.2 214.7 130.9 213.8 130.9H208.4C207.5 130.9 206.8 130.1 206.8 129.3V71.6ZM299.6 70C308.3 70 314.5 72.9 320.3 78C321.1 78.7 321.1 79.7 320.4 80.4L316.6 84.3C316 85.1 315.2 85.1 314.5 84.3C310.5 80.8 305 78.6 299.7 78.6C287.4 78.6 278.2 88.9 278.2 100.9C278.2 112.9 287.5 123.1 299.8 123.1C306.1 123.1 310.4 120.6 314.5 117.4C315.3 116.8 316 116.9 316.6 117.3L320.5 121.2C321.2 121.8 321 122.9 320.4 123.5C314.6 129.2 307.2 131.8 299.6 131.8C282.5 131.8 268.6 118.2 268.6 101C268.7 83.8 282.5 70 299.6 70V70ZM111.1 54.8C110.1 56 109 56.9 107.7 57.5C106.4 58.1 105.1 58.4 103.6 58.4C102 58.4 100.6 58.1 99.3 57.6C98 57.1 96.9 56.3 95.9 55.4C95 54.4 94.2 53.3 93.7 52C93.2 50.7 92.9 49.3 92.9 47.7C92.9 46.1 93.2 44.7 93.7 43.4C94.2 42.1 95 41 95.9 40C96.8 39 98 38.3 99.3 37.8C100.6 37.3 102.1 37 103.6 37C105.1 37 106.5 37.3 107.8 37.9C109.1 38.5 110.2 39.4 111.2 40.5L109.1 42.1C108.3 41.2 107.5 40.6 106.6 40.1C105.7 39.6 104.7 39.4 103.7 39.4C102.5 39.4 101.4 39.6 100.4 40.1C99.4 40.6 98.6 41.1 97.8 41.9C97 42.7 96.6 43.5 96.2 44.5C95.8 45.5 95.6 46.6 95.6 47.7C95.6 48.8 95.8 49.9 96.2 50.9C96.6 51.9 97.1 52.8 97.8 53.5C98.5 54.2 99.4 54.8 100.4 55.3C101.4 55.8 102.5 56 103.7 56C104.8 56 105.8 55.7 106.8 55.2C107.7 54.7 108.5 54 109.2 53.2L111.1 54.8V54.8ZM133.2 54C132.2 55.6 130.9 56.7 129.4 57.3C127.9 58 126.2 58.3 124.4 58.3C122.8 58.3 121.4 58 120.2 57.5C118.9 57 117.9 56.2 116.9 55.3C116 54.3 115.3 53.2 114.8 51.9C114.3 50.6 114.1 49.1 114.1 47.6C114.1 46.1 114.3 44.7 114.8 43.4C115.3 42.1 116 41 116.9 40C117.8 39 118.9 38.3 120.1 37.8C121.3 37.3 122.7 37 124.2 37C125.8 37 127.1 37.3 128.3 37.8C129.5 38.3 130.5 39.1 131.3 40C132.1 40.9 132.7 41.9 133.1 43.1C133.5 44.2 133.7 45.4 133.7 46.6V48.4H116.6C116.6 49 116.7 49.7 116.9 50.5C117.1 51.4 117.5 52.2 118.1 53C118.7 53.8 119.5 54.5 120.5 55.1C121.5 55.7 122.8 56 124.3 56C125.6 56 127 55.7 128.2 55C129.5 54.4 130.4 53.5 131.1 52.4L133.2 54ZM131.2 45.9C131.2 45 131 44.1 130.7 43.3C130.3 42.5 129.8 41.8 129.2 41.2C128.6 40.6 127.8 40.1 127 39.8C126.1 39.4 125.2 39.3 124.2 39.3C122.8 39.3 121.6 39.6 120.6 40.2C119.6 40.8 118.9 41.5 118.3 42.2C117.7 43 117.3 43.7 117.1 44.4C116.9 45.1 116.7 45.6 116.7 45.9H131.2ZM139.8 43.2V41.8C139.8 41.3 139.7 40.7 139.7 40.1C139.7 39.5 139.7 39 139.6 38.5V37.4H142.2C142.2 38.2 142.3 38.9 142.3 39.6C142.3 40.3 142.4 40.8 142.4 41C143.1 39.8 143.9 38.8 145 38.1C146.1 37.3 147.3 37 148.9 37C149.2 37 149.4 37 149.7 37.1C149.9 37.1 150.2 37.2 150.5 37.3L150.2 39.9C149.8 39.8 149.5 39.7 149.2 39.7C148.1 39.7 147.1 39.9 146.2 40.2C145.4 40.6 144.7 41.1 144.1 41.7C143.5 42.3 143.2 43.1 142.9 44C142.6 44.9 142.5 45.8 142.5 46.8V57.9H139.9V43.2H139.8ZM164.4 39.9H158.6V53.1C158.6 54 158.8 54.7 159.3 55.2C159.8 55.7 160.5 55.9 161.4 55.9C161.9 55.9 162.4 55.8 162.9 55.7C163.4 55.6 163.9 55.4 164.4 55.2L164.6 57.6C164.1 57.8 163.5 57.9 162.9 58.1C162.3 58.2 161.7 58.3 161.2 58.3C160.3 58.3 159.5 58.2 158.8 57.9C158.2 57.6414 157.656 57.2677 157.2 56.8C156.8 56.3 156.5 55.8 156.3 55.2C156.1 54.6 156 53.9 156 53.2V39.9H151.6V37.5H156V31.6H158.6V37.5H164.4V39.9V39.9ZM169 29.4C169 28.8 169.2 28.4 169.6 28C170 27.6 170.5 27.4 171 27.4C171.6 27.4 172 27.6 172.4 28C172.8 28.4 173 28.9 173 29.4C173 30 172.8 30.4 172.4 30.8C172 31.2 171.5 31.4 171 31.4C170.4 31.4 170 31.2 169.6 30.8C169.2 30.5 169 30 169 29.4ZM169.7 37.5H172.3V57.8H169.7V37.5ZM181.3 39.9H177.1V37.5H181.3V30.9C181.3 29.6 181.5 28.5 181.9 27.6C182.3 26.7 182.8 26 183.4 25.5C184 25 184.6 24.6 185.4 24.4C186.1 24.2 186.8 24.1 187.4 24.1C188.6 24.1 189.6 24.3 190.4 24.6L189.9 26.9C189.3 26.6 188.5 26.5 187.5 26.5C185.1 26.5 183.9 28.3 183.9 31.9V37.6H188.7V40H184V58H181.4V39.9H181.3ZM192.7 29.4C192.7 28.8 192.9 28.4 193.3 28C193.7 27.6 194.2 27.4 194.7 27.4C195.2 27.4 195.7 27.6 196.1 28C196.5 28.4 196.7 28.9 196.7 29.4C196.7 30 196.5 30.4 196.1 30.8C195.7 31.2 195.2 31.4 194.7 31.4C194.2 31.4 193.7 31.2 193.3 30.8C192.9 30.5 192.7 30 192.7 29.4ZM193.3 37.5H195.9V57.8H193.3V37.5ZM221.5 54C220.5 55.6 219.2 56.7 217.7 57.3C216.2 58 214.5 58.3 212.7 58.3C211.1 58.3 209.7 58 208.5 57.5C207.2 57 206.2 56.2 205.2 55.3C204.3 54.3 203.6 53.2 203.1 51.9C202.6 50.6 202.4 49.1 202.4 47.6C202.4 46.1 202.6 44.7 203.1 43.4C203.6 42.1 204.3 41 205.2 40C206.1 39 207.2 38.3 208.4 37.8C209.6 37.3 211 37 212.5 37C214.1 37 215.4 37.3 216.6 37.8C217.8 38.3 218.8 39.1 219.6 40C220.4 40.9 221 41.9 221.4 43.1C221.8 44.2 222 45.4 222 46.6V48.4H205C205 49 205.1 49.7 205.3 50.5C205.5 51.4 205.9 52.2 206.5 53C207.1 53.8 207.9 54.5 208.9 55.1C209.9 55.7 211.1 56 212.7 56C214 56 215.4 55.7 216.6 55C217.9 54.4 218.8 53.5 219.5 52.4L221.5 54ZM219.4 45.9C219.4 45 219.2 44.1 218.9 43.3C218.5 42.5 218 41.8 217.4 41.2C216.8 40.6 216 40.1 215.2 39.8C214.3 39.4 213.4 39.3 212.4 39.3C211 39.3 209.8 39.6 208.8 40.2C207.8 40.8 207.1 41.5 206.5 42.2C205.9 43 205.5 43.7 205.3 44.4C205.1 45.1 204.9 45.6 204.9 45.9H219.4ZM245.8 54.3C245.3 55 244.8 55.6 244.2 56.1C243.6 56.6 242.9 57 242.2 57.4C241.5 57.8 240.7 58 239.9 58.1C239.1 58.3 238.3 58.3 237.6 58.3C236 58.3 234.6 58 233.3 57.5C232 57 230.9 56.2 229.9 55.3C229 54.3 228.2 53.2 227.7 51.9C227.2 50.6 226.9 49.2 226.9 47.6C226.9 46 227.2 44.6 227.7 43.3C228.2 42 229 40.9 229.9 39.9C230.8 38.9 232 38.2 233.3 37.7C234.6 37.2 236.1 36.9 237.6 36.9C238.4 36.9 239.1 37 239.9 37.1C240.7 37.3 241.4 37.5 242.2 37.8C242.9 38.1 243.6 38.6 244.2 39.1C244.8 39.6 245.3 40.2 245.7 40.9H245.8V24.5H248.4V57.8H245.8V54.3ZM246.1 47.7C246.1 46.6 245.9 45.5 245.4 44.5C245 43.5 244.4 42.6 243.6 41.9C242.8 41.2 241.9 40.6 240.9 40.1C239.9 39.7 238.8 39.4 237.6 39.4C236.4 39.4 235.3 39.6 234.3 40.1C233.3 40.5 232.5 41.1 231.7 41.9C231 42.6 230.5 43.5 230.1 44.5C229.7 45.5 229.5 46.6 229.5 47.7C229.5 48.8 229.7 49.9 230.1 50.9C230.5 51.9 231 52.8 231.7 53.5C232.4 54.2 233.3 54.8 234.3 55.3C235.3 55.7 236.4 56 237.6 56C238.8 56 239.9 55.8 240.9 55.3C241.9 54.9 242.8 54.3 243.6 53.5C244.4 52.8 245 51.9 245.4 50.9C245.8 49.9 246.1 48.8 246.1 47.7ZM28.2 146.5C28.1 146.2 28.3 146.1 28.5 146.1H29.3C29.4 146.1 29.6 146.2 29.6 146.4L32.2 155.9H32.3L35.4 146.2C35.4 146.1 35.5 146 35.7 146H36C36.1 146 36.3 146.1 36.3 146.2L39.4 155.9H39.5L42 146.4C42 146.3 42.2 146.1 42.3 146.1H43C43.3 146.1 43.4 146.3 43.3 146.5L39.8 158.8C39.8 158.9 39.6 159.1 39.5 159.1H39.2C39.1 159.1 38.9 159 38.9 158.9L35.7 149H35.6L32.5 158.9C32.4 159 32.3 159.1 32.2 159.1H32C31.9 159.1 31.7 159 31.7 158.8L28.2 146.5ZM51.9 145.9C55.6 145.9 58.5 148.9 58.5 152.5C58.5 156.2 55.6 159.1 51.9 159.1C48.2 159.1 45.3 156.2 45.3 152.5C45.3 148.8 48.2 145.9 51.9 145.9ZM51.9 157.8C54.8 157.8 57.2 155.4 57.2 152.5C57.2 149.6 54.8 147.2 51.9 147.2C49 147.2 46.6 149.6 46.6 152.5C46.6 155.4 48.9 157.8 51.9 157.8ZM63.1 146.1C63.1 146 63.3 145.8 63.4 145.8H63.7C63.8 145.8 64 145.9 64 146L67.6 156.1H67.7L71.3 146C71.3 145.9 71.5 145.8 71.6 145.8H72C72.1 145.8 72.3 145.9 72.3 146.1L74.7 158.4C74.8 158.7 74.6 158.8 74.4 158.8H73.7C73.6 158.8 73.4 158.7 73.4 158.5L71.8 149H71.7L68.3 158.7C68.3 158.8 68.1 158.9 68 158.9H67.7C67.6 158.9 67.4 158.8 67.4 158.7L64 149H63.9L62.3 158.5C62.3 158.6 62.1 158.8 62 158.8H61.3C61 158.8 60.9 158.6 61 158.4L63.1 146.1ZM77.9 146.4C77.9 146.2 78 146.1 78.2 146.1H85.4C85.6 146.1 85.7 146.3 85.7 146.4V146.9C85.7 147.1 85.6 147.2 85.4 147.2H79.2V151.7H84.5C84.7 151.7 84.8 151.9 84.8 152V152.5C84.8 152.7 84.6 152.8 84.5 152.8H79.2V157.5H85.4C85.6 157.5 85.7 157.7 85.7 157.8V158.3C85.7 158.5 85.6 158.6 85.4 158.6H78.2C78 158.6 77.9 158.4 77.9 158.3V146.4V146.4ZM89.1 146.2C89.1 146 89.3 145.9 89.4 145.9H89.9L98.2 156.2V146.4C98.2 146.2 98.3 146.1 98.5 146.1H99.1C99.3 146.1 99.4 146.3 99.4 146.4V158.8C99.4 159 99.2 159.1 99.1 159.1H98.8L90.4 148.6V158.6C90.4 158.8 90.3 158.9 90.1 158.9H89.5C89.3 158.9 89.2 158.7 89.2 158.6V146.2H89.1ZM102.5 150.7C102.4 150.6 102.4 150.4 102.6 150.3C102.8 150.1 103.7 149.3 103.7 148H103.5C102.9 148 102.5 147.5 102.5 147C102.5 146.4 103 146 103.5 146C104.1 146 104.7 146.3 104.7 147.7C104.7 149.2 103.7 150.5 103.2 151.1C103 151.3 102.9 151.2 102.8 151.1L102.5 150.7V150.7ZM106.8 157L107.1 156.7C107.3 156.5 107.5 156.3 107.7 156.5C107.8 156.6 109.2 157.9 110.8 157.9C112.3 157.9 113.3 157 113.3 155.9C113.3 154.6 112.2 153.9 110.1 153C108.1 152.1 106.9 151.3 106.9 149.2C106.9 148 107.9 145.9 110.8 145.9C112.6 145.9 113.9 146.8 113.9 146.8C114 146.9 114.2 147.1 114 147.4C113.9 147.5 113.9 147.6 113.8 147.7C113.6 148 113.5 148 113.2 147.9C113.1 147.8 111.9 147.1 110.8 147.1C108.9 147.1 108.3 148.3 108.3 149.1C108.3 150.3 109.2 151 110.8 151.7C113.3 152.7 114.9 153.6 114.9 155.8C114.9 157.7 113.1 159.1 110.9 159.1C108.7 159.1 107.3 157.8 107 157.6C106.8 157.5 106.6 157.3 106.8 157V157ZM122.2 146.4C122.2 146.2 122.3 146.1 122.5 146.1H126.5C128.7 146.1 130.3 147.6 130.3 149.5C130.3 150.9 129.4 151.9 128.5 152.4C129.5 152.8 130.7 153.7 130.7 155.4C130.7 157.5 129.1 158.9 126.7 158.9H122.5C122.3 158.9 122.2 158.7 122.2 158.6V146.4V146.4ZM126.9 157.7C128.2 157.7 129.2 156.7 129.2 155.4C129.2 154.1 128 153.1 126.6 153.1H123.6V157.7H126.9V157.7ZM126.6 151.8C128 151.8 128.8 150.8 128.8 149.5C128.8 148.2 128 147.3 126.6 147.3H123.6V151.8H126.6ZM133.9 146.4C133.9 146.2 134.1 146.1 134.2 146.1H134.9C135.1 146.1 135.3 146.3 135.3 146.4V154.1C135.3 156.2 136.6 157.8 138.8 157.8C141 157.8 142.3 156.2 142.3 154.1V146.4C142.3 146.2 142.4 146.1 142.6 146.1H143.3C143.5 146.1 143.6 146.3 143.6 146.4V154.2C143.6 157 141.6 159.1 138.7 159.1C135.8 159.1 133.9 157 133.9 154.2V146.4ZM146.8 157L147.1 156.7C147.3 156.5 147.5 156.3 147.7 156.5C147.8 156.6 149.2 157.9 150.8 157.9C152.3 157.9 153.3 157 153.3 155.9C153.3 154.6 152.2 153.9 150.1 153C148.1 152.1 146.9 151.3 146.9 149.2C146.9 148 147.9 145.9 150.8 145.9C152.6 145.9 153.9 146.8 153.9 146.8C154 146.9 154.2 147.1 154 147.4C153.9 147.5 153.9 147.6 153.8 147.7C153.6 148 153.5 148 153.2 147.9C153.1 147.8 151.9 147.1 150.8 147.1C148.9 147.1 148.3 148.3 148.3 149.1C148.3 150.3 149.2 151 150.8 151.7C153.3 152.7 154.9 153.6 154.9 155.8C154.9 157.7 153.1 159.1 150.9 159.1C148.7 159.1 147.3 157.8 147 157.6C146.8 157.5 146.6 157.3 146.8 157V157ZM157.8 146.4C157.8 146.2 158 146.1 158.1 146.1H158.8C159 146.1 159.1 146.3 159.1 146.4V158.6C159.1 158.8 158.9 158.9 158.8 158.9H158.1C157.9 158.9 157.8 158.7 157.8 158.6V146.4ZM163.3 146.2C163.3 146 163.5 145.9 163.6 145.9H164.1L172.4 156.2V146.4C172.4 146.2 172.5 146.1 172.7 146.1H173.3C173.5 146.1 173.6 146.3 173.6 146.4V158.8C173.6 159 173.4 159.1 173.3 159.1H173L164.6 148.6V158.6C164.6 158.8 164.5 158.9 164.3 158.9H163.7C163.5 158.9 163.4 158.7 163.4 158.6V146.2H163.3ZM177.9 146.4C177.9 146.2 178 146.1 178.2 146.1H185.4C185.6 146.1 185.7 146.3 185.7 146.4V146.9C185.7 147.1 185.6 147.2 185.4 147.2H179.2V151.7H184.5C184.7 151.7 184.8 151.9 184.8 152V152.5C184.8 152.7 184.6 152.8 184.5 152.8H179.2V157.5H185.4C185.6 157.5 185.7 157.7 185.7 157.8V158.3C185.7 158.5 185.6 158.6 185.4 158.6H178.2C178 158.6 177.9 158.4 177.9 158.3V146.4V146.4ZM188.3 157L188.6 156.7C188.8 156.5 189 156.3 189.2 156.5C189.3 156.6 190.7 157.9 192.3 157.9C193.8 157.9 194.8 157 194.8 155.9C194.8 154.6 193.7 153.9 191.6 153C189.6 152.1 188.4 151.3 188.4 149.2C188.4 148 189.4 145.9 192.3 145.9C194.1 145.9 195.4 146.8 195.4 146.8C195.5 146.9 195.7 147.1 195.5 147.4C195.4 147.5 195.4 147.6 195.3 147.7C195.1 148 195 148 194.7 147.9C194.6 147.8 193.4 147.1 192.3 147.1C190.4 147.1 189.8 148.3 189.8 149.1C189.8 150.3 190.7 151 192.3 151.7C194.8 152.7 196.4 153.6 196.4 155.8C196.4 157.7 194.6 159.1 192.4 159.1C190.2 159.1 188.8 157.8 188.5 157.6C188.3 157.5 188.1 157.3 188.3 157V157ZM198.5 157L198.8 156.7C199 156.5 199.2 156.3 199.4 156.5C199.5 156.6 200.9 157.9 202.5 157.9C204 157.9 205 157 205 155.9C205 154.6 203.9 153.9 201.8 153C199.8 152.1 198.6 151.3 198.6 149.2C198.6 148 199.6 145.9 202.5 145.9C204.3 145.9 205.6 146.8 205.6 146.8C205.7 146.9 205.9 147.1 205.7 147.4C205.6 147.5 205.6 147.6 205.5 147.7C205.3 148 205.2 148 204.9 147.9C204.8 147.8 203.6 147.1 202.5 147.1C200.6 147.1 200 148.3 200 149.1C200 150.3 200.9 151 202.5 151.7C205 152.7 206.6 153.6 206.6 155.8C206.6 157.7 204.8 159.1 202.6 159.1C200.4 159.1 199 157.8 198.7 157.6C198.4 157.5 198.3 157.3 198.5 157V157ZM213.9 146.4C213.9 146.2 214 146.1 214.2 146.1H221.4C221.6 146.1 221.7 146.3 221.7 146.4V146.9C221.7 147.1 221.6 147.2 221.4 147.2H215.2V151.7H220.5C220.7 151.7 220.8 151.9 220.8 152V152.5C220.8 152.7 220.6 152.8 220.5 152.8H215.2V157.5H221.4C221.6 157.5 221.7 157.7 221.7 157.8V158.3C221.7 158.5 221.6 158.6 221.4 158.6H214.2C214 158.6 213.9 158.4 213.9 158.3V146.4V146.4ZM225.1 146.2C225.1 146 225.3 145.9 225.4 145.9H225.9L234.2 156.2V146.4C234.2 146.2 234.3 146.1 234.5 146.1H235.1C235.3 146.1 235.4 146.3 235.4 146.4V158.8C235.4 159 235.2 159.1 235.1 159.1H234.8L226.4 148.6V158.6C226.4 158.8 226.3 158.9 226.1 158.9H225.5C225.3 158.9 225.2 158.7 225.2 158.6V146.2H225.1ZM241.5 147.3H238.3C238.1 147.3 238 147.1 238 147V146.5C238 146.3 238.1 146.2 238.3 146.2H246.1C246.3 146.2 246.4 146.4 246.4 146.5V147C246.4 147.2 246.3 147.3 246.1 147.3H242.9V158.6C242.9 158.8 242.7 158.9 242.6 158.9H241.9C241.7 158.9 241.6 158.7 241.6 158.6V147.3H241.5ZM248.9 146.4C248.9 146.2 249 146.1 249.2 146.1H256.4C256.6 146.1 256.7 146.3 256.7 146.4V146.9C256.7 147.1 256.6 147.2 256.4 147.2H250.2V151.7H255.5C255.7 151.7 255.8 151.9 255.8 152V152.5C255.8 152.7 255.6 152.8 255.5 152.8H250.2V157.5H256.4C256.6 157.5 256.7 157.7 256.7 157.8V158.3C256.7 158.5 256.6 158.6 256.4 158.6H249.2C249 158.6 248.9 158.4 248.9 158.3V146.4V146.4ZM260.1 146.4C260.1 146.2 260.2 146.1 260.4 146.1H265.2C267.4 146.1 269.2 147.8 269.2 150C269.2 151.7 268.1 153.1 266.5 153.7L269 158.4C269.1 158.6 269 158.9 268.7 158.9H267.8C267.6 158.9 267.5 158.8 267.5 158.7L265.1 153.8H261.6V158.5C261.6 158.7 261.4 158.8 261.3 158.8H260.6C260.4 158.8 260.3 158.6 260.3 158.5V146.4H260.1ZM265.1 152.7C266.5 152.7 267.7 151.5 267.7 150C267.7 148.6 266.5 147.4 265.1 147.4H261.5V152.7H265.1V152.7ZM272.6 146.4C272.6 146.2 272.7 146.1 272.9 146.1H277C279.3 146.1 281.1 147.9 281.1 150.2C281.1 152.5 279.2 154.3 277 154.3H274V158.6C274 158.8 273.8 158.9 273.7 158.9H273C272.8 158.9 272.7 158.7 272.7 158.6V146.4H272.6ZM276.9 152.9C278.4 152.9 279.7 151.7 279.7 150.1C279.7 148.6 278.4 147.5 276.9 147.5H274V152.9H276.9V152.9ZM283.9 146.4C283.9 146.2 284 146.1 284.2 146.1H289C291.2 146.1 293 147.8 293 150C293 151.7 291.9 153.1 290.3 153.7L292.8 158.4C292.9 158.6 292.8 158.9 292.5 158.9H291.6C291.4 158.9 291.3 158.8 291.3 158.7L288.9 153.8H285.4V158.5C285.4 158.7 285.2 158.8 285.1 158.8H284.4C284.2 158.8 284.1 158.6 284.1 158.5V146.4H283.9ZM288.9 152.7C290.3 152.7 291.5 151.5 291.5 150C291.5 148.6 290.3 147.4 288.9 147.4H285.3V152.7H288.9V152.7ZM296.4 146.4C296.4 146.2 296.6 146.1 296.7 146.1H297.4C297.6 146.1 297.7 146.3 297.7 146.4V158.6C297.7 158.8 297.5 158.9 297.4 158.9H296.7C296.5 158.9 296.4 158.7 296.4 158.6V146.4ZM301.2 157L301.5 156.7C301.7 156.5 301.9 156.3 302.1 156.5C302.2 156.6 303.6 157.9 305.2 157.9C306.7 157.9 307.7 157 307.7 155.9C307.7 154.6 306.6 153.9 304.5 153C302.5 152.1 301.3 151.3 301.3 149.2C301.3 148 302.3 145.9 305.2 145.9C307 145.9 308.3 146.8 308.3 146.8C308.4 146.9 308.6 147.1 308.4 147.4C308.3 147.5 308.3 147.6 308.2 147.7C308 148 307.9 148 307.6 147.9C307.5 147.8 306.3 147.1 305.2 147.1C303.3 147.1 302.7 148.3 302.7 149.1C302.7 150.3 303.6 151 305.2 151.7C307.7 152.7 309.3 153.6 309.3 155.8C309.3 157.7 307.5 159.1 305.3 159.1C303.1 159.1 301.7 157.8 301.4 157.6C301.1 157.5 300.9 157.3 301.2 157V157ZM312.1 146.4C312.1 146.2 312.2 146.1 312.4 146.1H319.6C319.8 146.1 319.9 146.3 319.9 146.4V146.9C319.9 147.1 319.8 147.2 319.6 147.2H313.4V151.7H318.7C318.9 151.7 319 151.9 319 152V152.5C319 152.7 318.8 152.8 318.7 152.8H313.4V157.5H319.6C319.8 157.5 319.9 157.7 319.9 157.8V158.3C319.9 158.5 319.8 158.6 319.6 158.6H312.4C312.2 158.6 312.1 158.4 312.1 158.3V146.4V146.4Z" fill="white"/>
<path d="M292 98.8C292.8 99.1 293.7 99.6 294.5 100.2L294.6 100.1C294.9 99.7 295.2 99.4 295.4 99C295.7 98.5 295.9 97.9 296.1 97.4C296.2 97.2 296.2 97 296.3 96.8L296.4 96.5C296.4 96.3 296.5 96.1 296.5 96C296.6 95.2 296.6 94.4 296.5 93.6C296.4 92.7 296.2 91.8 295.9 90.9C295.9 90.8 295.8 90.6 295.7 90.5C295.5 90.1 295.1 89.8 294.6 89.7C294.2 89.6 293.9 89.6 293.5 89.7C293 89.8 292.6 90.2 292.4 90.6C292.2 91 292.1 91.6 292.3 92C292.4 92.2 292.4 92.3 292.4 92.5C292.4 92.7 292.5 92.9 292.5 93.1C292.5 93.2 292.6 93.4 292.6 93.5C292.6 93.6 292.6 93.7 292.7 93.9C292.8 94.7 292.8 95.3 292.7 95.9C292.6 96.2 292.6 96.4 292.5 96.7L292.2 97.3C292.1 97.5 291.9 97.8 291.7 98L291.2 98.5L291.1 98.6C291.3 98.7 291.4 98.7 291.6 98.8H292V98.8ZM287.4 96.3C288.7 96.3 289.7 95.3 289.7 94C289.7 92.7 288.7 91.7 287.4 91.7C286.1 91.7 285.1 92.7 285.1 94C285 95.3 286.1 96.3 287.4 96.3Z" fill="white"/>
<path d="M292.3 106C292.4 106.2 292.6 106.5 292.6 106.8C292.7 107 292.7 107.3 292.8 107.5V107.7C292.9 107.6 293.1 107.5 293.2 107.4L293.7 107C294.4 106.4 295.2 106 296.2 105.6V105.5C296 105.1 295.8 104.6 295.6 104.2C295.3 103.7 294.9 103.2 294.5 102.8L294.1 102.4L293.8 102.2C293.6 102.1 293.5 102 293.4 101.9C292.8 101.4 292.1 101 291.3 100.7C290.5 100.3 289.6 100.1 288.7 99.8H288.3C287.8 99.8 287.3 100 287 100.3C286.7 100.6 286.5 100.9 286.5 101.2C286.4 101.7 286.5 102.2 286.7 102.6C287 103 287.4 103.3 287.9 103.4C288.1 103.4 288.2 103.5 288.4 103.5C288.6 103.6 288.8 103.6 288.9 103.7C289 103.7 289.2 103.8 289.3 103.8C289.4 103.8 289.5 103.9 289.6 103.9C290.3 104.2 290.9 104.5 291.3 104.9C291.5 105.1 291.7 105.3 291.8 105.5C292.1 105.6 292.2 105.8 292.3 106V106ZM288.4 106.6C288 106.4 287.7 106.3 287.2 106.3C286.4 106.3 285.6 106.7 285.2 107.5C284.9 108 284.8 108.7 285 109.3C285.2 109.9 285.5 110.4 286.1 110.7C286.5 110.9 286.9 111 287.3 111C288.1 111 288.9 110.6 289.3 109.8C289.6 109.3 289.7 108.6 289.5 108C289.3 107.4 289 106.9 288.4 106.6Z" fill="white"/>
<path d="M294.2 113.4C294.7 113.4 295.2 113.2 295.5 112.8C295.6 112.7 295.7 112.5 295.9 112.4L296.3 112L296.6 111.7C296.7 111.6 296.8 111.6 296.9 111.5C297.5 111 298.1 110.7 298.7 110.5C299 110.4 299.2 110.3 299.5 110.3C300 110.2 300.5 110.2 301 110.3C301.2 110.4 301.5 110.4 301.7 110.5C301.8 110.5 301.8 110.5 301.9 110.6C301.9 110.4 301.8 110.3 301.8 110.1L301.7 109.5C301.5 108.6 301.6 107.7 301.7 106.6H301.6C301.1 106.5 300.7 106.5 300.2 106.5C299.6 106.5 299 106.6 298.4 106.7C298.2 106.7 298 106.8 297.8 106.9L297.5 107C297.3 107.1 297.2 107.1 297 107.2C296.3 107.5 295.6 107.9 294.9 108.4C294.2 108.9 293.5 109.5 292.8 110.2C292.7 110.3 292.6 110.4 292.5 110.6C292.3 111 292.2 111.5 292.3 112C292.4 112.4 292.6 112.7 292.8 112.9C293.2 113.2 293.7 113.4 294.2 113.4V113.4ZM299.9 113.7C299.5 113.7 299.1 113.8 298.7 114C297.6 114.6 297.2 116.1 297.9 117.2C298.3 117.9 299.1 118.4 299.9 118.4C300.3 118.4 300.7 118.3 301.1 118.1C302.2 117.5 302.6 116 301.9 114.9C301.5 114.1 300.7 113.7 299.9 113.7Z" fill="white"/>
<path d="M307.9 104C307.1 103.7 306.2 103.2 305.4 102.6L305.3 102.7C305 103.1 304.7 103.4 304.5 103.8C304.2 104.3 304 104.9 303.8 105.4C303.7 105.6 303.7 105.8 303.6 106L303.5 106.3C303.5 106.5 303.4 106.7 303.4 106.8C303.3 107.6 303.3 108.4 303.4 109.2C303.5 110.1 303.7 111 304 111.9C304 112 304.1 112.2 304.2 112.3C304.4 112.7 304.8 113 305.3 113.1C305.7 113.2 306 113.2 306.4 113.1C306.9 113 307.3 112.6 307.5 112.2C307.7 111.8 307.8 111.2 307.6 110.8C307.5 110.6 307.5 110.5 307.5 110.3C307.5 110.1 307.4 109.9 307.4 109.7C307.4 109.6 307.3 109.4 307.3 109.3C307.3 109.2 307.3 109.1 307.2 108.9C307.1 108.1 307.1 107.5 307.2 106.9C307.3 106.6 307.3 106.4 307.4 106.1L307.7 105.5C307.8 105.3 308 105 308.2 104.8L308.7 104.3L308.8 104.2C308.6 104.1 308.5 104.1 308.3 104H307.9V104ZM312.6 106.4C311.3 106.4 310.3 107.4 310.3 108.7C310.3 110 311.3 111 312.6 111C313.9 111 314.9 110 314.9 108.7C314.9 107.4 313.8 106.4 312.6 106.4Z" fill="white"/>
<path d="M311.6 103.2C312.1 103.2 312.5 103 312.9 102.7C313.2 102.4 313.4 102.1 313.4 101.8C313.5 101.3 313.4 100.8 313.2 100.4C312.9 100 312.5 99.7 312 99.6C311.8 99.6 311.7 99.5 311.5 99.5C311.3 99.4 311.1 99.4 311 99.3C310.9 99.3 310.7 99.2 310.6 99.2C310.5 99.2 310.4 99.1 310.3 99.1C309.6 98.8 309 98.5 308.6 98.1L308 97.5C307.9 97.3 307.7 97.1 307.6 96.9C307.5 96.6 307.3 96.4 307.3 96.1C307.2 95.9 307.2 95.6 307.1 95.4V95.2C307 95.3 306.8 95.4 306.7 95.5L306.2 95.9C305.5 96.5 304.7 96.9 303.7 97.3V97.4C303.9 97.8 304.1 98.3 304.3 98.7C304.6 99.2 305 99.7 305.4 100.1L305.8 100.5L306.1 100.7C306.3 100.8 306.4 100.9 306.5 101C307.1 101.5 307.8 101.9 308.6 102.2C309.4 102.6 310.3 102.9 311.2 103.1C311.3 103.2 311.4 103.2 311.6 103.2V103.2ZM311.5 96.2C312.6 96.8 314 96.4 314.7 95.4C315.3 94.3 315 92.9 313.9 92.2C313.5 92 313.1 91.9 312.7 91.9C311.9 91.9 311.1 92.3 310.7 93.1C310.4 93.6 310.3 94.3 310.5 94.9C310.6 95.4 310.9 95.9 311.5 96.2Z" fill="white"/>
<path d="M298.3 93.2C298.5 94.1 298.4 95 298.3 96.1H298.4C299.4 96.3 300.5 96.3 301.6 96C301.8 96 302 95.9 302.2 95.8L302.5 95.7C302.7 95.6 302.8 95.6 303 95.5C303.7 95.2 304.4 94.8 305.1 94.3C305.8 93.8 306.5 93.2 307.2 92.5C307.3 92.4 307.4 92.3 307.5 92.1C307.7 91.7 307.8 91.2 307.7 90.7C307.6 90.3 307.4 90 307.2 89.8C306.9 89.5 306.4 89.3 305.9 89.3C305.3 89.3 304.9 89.5 304.5 89.9C304.4 90 304.3 90.2 304.1 90.3L303.7 90.7L303.4 91C303.3 91.1 303.2 91.2 303.1 91.2C302.5 91.7 301.9 92 301.3 92.2C301 92.3 300.8 92.4 300.5 92.4C300 92.5 299.5 92.5 299 92.4C298.8 92.4 298.5 92.3 298.3 92.2C298.2 92.2 298.2 92.2 298.1 92.1C298.1 92.3 298.2 92.5 298.2 92.6L298.3 93.2V93.2ZM301.2 88.8C302.3 88.2 302.7 86.7 302 85.6C301.6 84.9 300.8 84.4 300 84.4C299.6 84.4 299.2 84.5 298.8 84.7C298.3 85 297.9 85.5 297.7 86.1C297.5 86.7 297.6 87.3 297.9 87.9C298.6 89 300.1 89.4 301.2 88.8Z" fill="white"/>
</svg>
