<svg xmlns="http://www.w3.org/2000/svg" viewBox="0 0 49.92 47.36">
  <defs>
    <style>
      .cls-1 {
        fill: #1f2940;
      }

      .cls-2 {
        fill: none;
        stroke: #fff;
        stroke-linecap: round;
        stroke-linejoin: round;
        stroke-width: 1.27px;
      }

      .cls-3 {
        fill: #40ccf7;
      }

      .cls-4 {
        fill: #fff;
      }

      .cls-5 {
        fill: #262e42;
      }
    </style>
  </defs>
  <title>1</title>
  <g id="Слой_2" data-name="Слой 2">
    <g id="Слой_1-2" data-name="Слой 1">
      <g>
        <polygon class="cls-1" points="6.85 45.93 5.8 40.32 0.64 37.88 13.33 28.1 19.54 36.15 6.85 45.93"/>
        <polygon class="cls-2" points="6.85 45.93 5.8 40.32 0.64 37.88 13.33 28.1 19.54 36.15 6.85 45.93"/>
        <polygon class="cls-1" points="49.28 39.72 43.81 41.33 41.91 46.72 30.87 35.11 38.24 28.1 49.28 39.72"/>
        <polygon class="cls-2" points="49.28 39.72 43.81 41.33 41.91 46.72 30.87 35.11 38.24 28.1 49.28 39.72"/>
        <path class="cls-3" d="M47.15,22.82A22.19,22.19,0,1,1,25,.63,22.19,22.19,0,0,1,47.15,22.82"/>
        <path class="cls-2" d="M47.15,22.82A22.19,22.19,0,1,1,25,.63,22.19,22.19,0,0,1,47.15,22.82Z"/>
        <rect class="cls-1" x="1.39" y="16.68" width="46.61" height="11.47"/>
        <rect class="cls-2" x="1.39" y="16.68" width="46.61" height="11.47"/>
        <path class="cls-4" d="M9.87,19.73h0L7,25.77H6.71l-2.84-6H5l1.53,3.33a8.61,8.61,0,0,1,.34.83,8.6,8.6,0,0,1,.34-.84l1.51-3.32Z"/>
        <polygon class="cls-4" points="14.95 24.81 14.95 25.73 11.09 25.73 11.09 19.73 14.87 19.73 14.87 20.64 12.13 20.64 12.13 22.23 14.53 22.23 14.53 23.13 12.13 23.13 12.13 24.81 14.95 24.81"/>
        <polygon class="cls-4" points="20.35 20.69 18.65 20.69 18.65 25.73 17.61 25.73 17.61 20.69 15.91 20.69 15.91 19.73 20.35 19.73 20.35 20.69"/>
        <polygon class="cls-4" points="25.54 24.81 25.54 25.73 21.69 25.73 21.69 19.73 25.46 19.73 25.46 20.64 22.73 20.64 22.73 22.23 25.12 22.23 25.12 23.13 22.73 23.13 22.73 24.81 25.54 24.81"/>
        <path class="cls-4" d="M29.32,22.59a1,1,0,0,0,1.09-1,1,1,0,0,0-1.08-1H28.11v2Zm2.29,3.11v0H30.43L29,23.45h-.91v2.28h-1v-6h2.35a1.89,1.89,0,0,1,2,1.87,1.79,1.79,0,0,1-1.38,1.74Z"/>
        <path class="cls-4" d="M34.91,22.39l-.65,1.43h2.11l-.65-1.43c-.14-.31-.26-.63-.4-1-.15.39-.27.7-.41,1M38.3,25.7v0H37.21l-.49-1.09H33.91l-.49,1.09h-1.1v0l2.84-6h.31Z"/>
        <path class="cls-4" d="M44.65,19.73v6h-.41L41,22.23l-.5-.55c0,.22,0,.44,0,.65v3.4h-1v-6h.4L43,23.14c.2.21.4.42.6.65,0-.29,0-.56,0-.81V19.73Z"/>
        <path class="cls-4" d="M17.86,32.33a1.2,1.2,0,1,0-2.4,0,1.2,1.2,0,1,0,2.4,0m-3,0a1.83,1.83,0,1,1,1.83,1.82,1.78,1.78,0,0,1-1.83-1.82"/>
        <path class="cls-4" d="M23.91,30.59h0l-1.23,3.51H22.5l-.85-1.86a2.89,2.89,0,0,1-.15-.39,2.89,2.89,0,0,1-.15.39l-.85,1.86h-.18L19.1,30.6h.64l.61,1.82a4.71,4.71,0,0,1,.15.52c.07-.2.13-.36.2-.52l.72-1.61h.15l.7,1.54c.08.19.16.38.23.58.05-.2.12-.38.18-.55l.59-1.78Z"/>
        <path class="cls-4" d="M27.72,30.59v3.52h-.24L25.59,32l-.29-.32c0,.13,0,.26,0,.38v2h-.6V30.57H25l1.83,2,.35.37c0-.17,0-.32,0-.46v-1.9Z"/>
        <polygon class="cls-4" points="31.13 33.55 31.13 34.09 28.88 34.09 28.88 30.59 31.08 30.59 31.08 31.12 29.49 31.12 29.49 32.05 30.88 32.05 30.88 32.57 29.49 32.57 29.49 33.55 31.13 33.55"/>
        <path class="cls-4" d="M33.3,33.56a1.14,1.14,0,0,0,1.19-1.22,1.15,1.15,0,0,0-1.19-1.23h-.62v2.45Zm-1.23-3h1.25a1.75,1.75,0,1,1,0,3.49H32.07Z"/>
        <path class="cls-5" d="M21.32,8.48a.49.49,0,0,1,.4-.33l2.14-.31,1-1.94a.51.51,0,0,1,.89,0l.95,1.94,2.14.31h0a.49.49,0,0,1,.4.33.5.5,0,0,1-.12.51L27.53,10.5l.36,2.13a.47.47,0,0,1-.19.48.49.49,0,0,1-.52,0l-1.92-1-1.91,1a.47.47,0,0,1-.52,0,.49.49,0,0,1-.2-.48L23,10.5,21.45,9a.49.49,0,0,1-.13-.51"/>
        <path class="cls-5" d="M23,10.5l-.37,2.13a.49.49,0,0,0,.2.48.47.47,0,0,0,.52,0l1.91-1,1.92,1a.49.49,0,0,0,.52,0,.5.5,0,0,0,.2-.48l-.37-2.13L29.08,9a.5.5,0,0,0,.12-.51.47.47,0,0,0-.4-.33h0l-2.14-.32L25.71,5.9a.51.51,0,0,0-.89,0l-1,1.94-2.14.31a.49.49,0,0,0-.4.33.51.51,0,0,0,.13.51Z"/>
        <path class="cls-5" d="M31.85,9.82a.35.35,0,0,1,.29-.24l1.53-.22L34.36,8a.35.35,0,0,1,.32-.19A.37.37,0,0,1,35,8l.68,1.39,1.53.22h0a.35.35,0,0,1,.2.6L36.3,11.27l.26,1.52a.34.34,0,0,1-.14.35.35.35,0,0,1-.37,0l-1.37-.72-1.38.72a.35.35,0,0,1-.37,0,.36.36,0,0,1-.14-.35l.26-1.52-1.11-1.09a.34.34,0,0,1-.09-.36"/>
        <path class="cls-5" d="M33.05,11.27l-.26,1.52a.36.36,0,0,0,.14.35.35.35,0,0,0,.37,0l1.38-.72,1.37.72a.35.35,0,0,0,.37,0,.34.34,0,0,0,.14-.35l-.26-1.52,1.11-1.09a.35.35,0,0,0-.2-.6h0l-1.53-.22L35,8a.37.37,0,0,0-.32-.19.35.35,0,0,0-.32.19l-.69,1.39-1.53.22a.35.35,0,0,0-.2.6Z"/>
        <path class="cls-5" d="M13,9.82a.35.35,0,0,1,.28-.24l1.54-.22L15.53,8a.36.36,0,0,1,.64,0l.68,1.39,1.54.22h0a.35.35,0,0,1,.28.24.34.34,0,0,1-.08.36l-1.11,1.09.26,1.52a.36.36,0,0,1-.14.35.37.37,0,0,1-.38,0l-1.37-.72-1.37.72a.37.37,0,0,1-.38,0,.36.36,0,0,1-.14-.35l.26-1.52-1.1-1.09A.32.32,0,0,1,13,9.82"/>
        <path class="cls-5" d="M14.22,11.27,14,12.79a.36.36,0,0,0,.14.35.37.37,0,0,0,.38,0l1.37-.72,1.37.72a.37.37,0,0,0,.38,0,.38.38,0,0,0,.14-.35l-.26-1.52,1.11-1.09a.34.34,0,0,0,.08-.36.35.35,0,0,0-.28-.24h0l-1.54-.22L16.17,8a.36.36,0,0,0-.64,0l-.68,1.39-1.54.22a.35.35,0,0,0-.28.24.32.32,0,0,0,.09.36Z"/>
      </g>
    </g>
  </g>
</svg>
