<svg xmlns="http://www.w3.org/2000/svg" viewBox="0 0 49.69 47.25">
  <defs>
    <style>
      .cls-1 {
        fill: #d91c5c;
      }

      .cls-2, .cls-4 {
        fill: none;
        stroke: #fff;
        stroke-linejoin: round;
      }

      .cls-3 {
        fill: #40ccf7;
      }

      .cls-4 {
        stroke-linecap: round;
        stroke-width: 1.27px;
      }

      .cls-5 {
        fill: #f7f7f7;
      }
    </style>
  </defs>
  <title>2</title>
  <g id="Слой_2" data-name="Слой 2">
    <g id="Слой_1-2" data-name="Слой 1">
      <g>
        <polygon class="cls-1" points="6.72 45.95 5.68 40.33 0.5 37.88 13.23 28.08 19.45 36.15 6.72 45.95"/>
        <polygon class="cls-2" points="6.72 45.95 5.68 40.33 0.5 37.88 13.23 28.08 19.45 36.15 6.72 45.95"/>
        <polygon class="cls-1" points="49.19 39.72 43.7 41.34 41.81 46.75 30.74 35.1 38.12 28.08 49.19 39.72"/>
        <polygon class="cls-2" points="49.19 39.72 43.7 41.34 41.81 46.75 30.74 35.1 38.12 28.08 49.19 39.72"/>
        <path class="cls-3" d="M47.77,22.82A22.19,22.19,0,1,1,25.58.63,22.18,22.18,0,0,1,47.77,22.82"/>
        <path class="cls-4" d="M47.77,22.82A22.19,22.19,0,1,1,25.58.63,22.18,22.18,0,0,1,47.77,22.82Z"/>
        <rect class="cls-1" x="1.99" y="16.66" width="46.65" height="11.51"/>
        <rect class="cls-2" x="1.99" y="16.66" width="46.65" height="11.51"/>
        <path class="cls-5" d="M14.66,19.73v0l-2.11,6h-.31l-1.46-3.19a3.63,3.63,0,0,1-.25-.66,6.06,6.06,0,0,1-.26.66L8.81,25.77H8.5l-2.1-6v0H7.5l1.05,3.12c.09.28.18.56.26.89.12-.33.22-.61.35-.88l1.23-2.77h.26l1.19,2.65c.15.32.28.65.41,1a9.69,9.69,0,0,1,.3-.95l1-3.05Z"/>
        <path class="cls-5" d="M20.91,22.72a2.06,2.06,0,1,0-4.12,0,2.06,2.06,0,1,0,4.12,0m-5.19,0a3,3,0,0,1,3.12-3.11A3,3,0,0,1,22,22.72a3,3,0,0,1-3.13,3.12,3,3,0,0,1-3.12-3.12"/>
        <path class="cls-5" d="M30.07,25.73H29l-.47-3.25c0-.21-.06-.4-.07-.61-.11.2-.23.38-.36.57l-1.37,2.08h-.21L25.2,22.44c-.13-.19-.25-.38-.37-.59a6.27,6.27,0,0,1-.07.64l-.46,3.24h-1l.88-6.05h.31l1.81,2.77.39.63q.18-.31.39-.63l1.81-2.77h.31Z"/>
        <path class="cls-5" d="M33.59,22.39l-.65,1.43h2.12l-.66-1.43c-.14-.31-.26-.63-.4-1-.14.39-.27.7-.41,1M37,25.7v0H35.9l-.5-1.09H32.59l-.49,1.09H31v0l2.83-6h.32Z"/>
        <path class="cls-5" d="M43.43,19.73v6H43l-3.24-3.54-.5-.55c0,.22,0,.44,0,.65v3.4h-1v-6h.4l3.14,3.45c.2.21.4.42.6.65,0-.29,0-.56,0-.81V19.73Z"/>
        <path class="cls-5" d="M18.48,32.33a1.2,1.2,0,1,0-2.4,0,1.2,1.2,0,1,0,2.4,0m-3,0a1.82,1.82,0,0,1,3.64,0,1.82,1.82,0,0,1-3.64,0"/>
        <path class="cls-5" d="M24.53,30.59h0L23.3,34.11h-.18l-.85-1.86c-.05-.12-.1-.24-.15-.39a2.89,2.89,0,0,1-.15.39l-.85,1.86h-.18L19.72,30.6h.64L21,32.41a4.71,4.71,0,0,1,.15.52,4.32,4.32,0,0,1,.21-.52l.72-1.61h.14l.7,1.54c.09.19.16.38.24.58.05-.2.11-.38.17-.55l.6-1.78Z"/>
        <path class="cls-5" d="M28.34,30.59v3.52H28.1L26.22,32c-.09-.09-.2-.2-.3-.32,0,.13,0,.26,0,.38v2h-.6V30.57h.23l1.83,2c.12.12.24.24.35.37,0-.17,0-.32,0-.46v-1.9Z"/>
        <polygon class="cls-5" points="31.75 33.55 31.75 34.09 29.5 34.09 29.5 30.59 31.7 30.59 31.7 31.12 30.11 31.12 30.11 32.05 31.5 32.05 31.5 32.57 30.11 32.57 30.11 33.55 31.75 33.55"/>
        <path class="cls-5" d="M33.93,33.56a1.23,1.23,0,0,0,0-2.45H33.3v2.45Zm-1.23-3H34a1.75,1.75,0,1,1,0,3.49H32.7Z"/>
      </g>
    </g>
  </g>
</svg>
